{"title":"Cloudy.With.A.Chance.Of.Meatballs.2009.1080p.DTS.AC3.x264.iSAAC","uid":11221532,"size":5912012183,"categoryP":"video","categoryS":"hd___movies","magnet":"?xt=urn:btih:caf82b2f4ee3a9d7bb5425e50a3b04d446b2a897&amp;dn=Cloudy.With.A.Chance.Of.Meatballs.2009.1080p.DTS.AC3.x264.iSAAC&amp;tr=udp%3A%2F%2Ftracker.openbittorrent.com%3A80&amp;tr=udp%3A%2F%2Fopen.demonii.com%3A1337&amp;tr=udp%3A%2F%2Ftracker.coppersurfer.tk%3A6969&amp;tr=udp%3A%2F%2Fexodus.desync.com%3A6969","seeders":1,"leechers":0,"uploader":"Isaac09","files":-1,"time":1413391439,"description":"Cloudy.With.A.Chance.Of.Meatballs.2009.1080p.DTS.AC3.x264.iSAAC\n\nDirector: Phil Lord, Christopher Miller\nWriters: Phil Lord, Christopher Miller, Judi Barrett, Ron Barrett\nStars: Bill Hader, Anna Faris, James Caan, Andy Samberg\n  &lt;a href=&quot;\nhttp://www.imdb.com/title/tt0844471/&quot; rel=&quot;nofollow&quot; target=&quot;_NEW&quot;&gt;\nhttp://www.imdb.com/title/tt0844471/&lt;/a&gt;\n\nThe most delicious event since macaroni met cheese. Inspired by the beloved children's book, the film focuses on a town where food falls from the sky like rain.\n\nRUNTIME.......: 1h 29mn\nVIDEO CODEC...: x264, High @4.1\nFRAMERATE.....: 23.976 fps\nBITRATE.......: 8.7 Mbps\nRESOLUTION....: 1920x816\nSOURCE........: Russian Blu-Ray\nGENRE.........: Animation, Comedy, Family\n\nAUDIO 1.......: English DTS 5.1 @ 1509 Kbps\nAUDIO 2.......: Commentary AC3 @ 192Kbps\nSUBTITLES.....: English\n\n\nGeneral\nUnique ID                                : 170343558528968447447658969838516102183 (0x8026F9DC79C6A466A1D121896F6EE427)\nComplete name                            : E:CinemaCloudy With A Chance Of MeatballsCloudy With A Chance Of Meatballs.mkv\nFormat                                   : Matroska\nFormat version                           : Version 4 / Version 2\nFile size                                : 5.51 GiB\nDuration                                 : 1h 29mn\nOverall bit rate                         : 8 768 Kbps\nEncoded date                             : UTC 2014-10-15 12:57:06\nWriting application                      : mkvmerge v7.2.0 ('On Every Street') 64bit built on Sep 13 2014 15:52:10\nWriting library                          : libebml v1.3.0 + libmatroska v1.4.1\nDURATION                                 : 01:28:36.270000000\nNUMBER_OF_FRAMES                         : 1840\nNUMBER_OF_BYTES                          : 78261\n_STATISTICS_WRITING_APP                  : mkvmerge v7.2.0 ('On Every Street') 64bit built on Sep 13 2014 15:52:10\n_STATISTICS_WRITING_DATE_UTC             : 2014-10-15 12:57:06\n_STATISTICS_TAGS                         : BPS DURATION NUMBER_OF_FRAMES NUMBER_OF_BYTES\n\nVideo\nID                                       : 1\nFormat                                   : AVC\nFormat/Info                              : Advanced Video Codec\nFormat profile                           : &lt;a class=&quot;__cf_email__&quot; href=&quot;/cdn-cgi/l/email-protection&quot; data-cfemail=&quot;ade5c4cac5ede199839c&quot;&gt;[email&amp;#160;protected]&lt;/a&gt;&lt;script cf-hash='f9e31' type=&quot;text/javascript&quot;&gt;\n/* &lt;![CDATA[ */!function(){try{var t=&quot;currentScript&quot;in document?document.currentScript:function(){for(var t=document.getElementsByTagName(&quot;script&quot;),e=t.length;e--;)if(t[e].getAttribute(&quot;cf-hash&quot;))return t[e]}();if(t&amp;&amp;t.previousSibling){var e,r,n,i,c=t.previousSibling,a=c.getAttribute(&quot;data-cfemail&quot;);if(a){for(e=&quot;&quot;,r=parseInt(a.substr(0,2),16),n=2;a.length-n;n+=2)i=parseInt(a.substr(n,2),16)^r,e+=String.fromCharCode(i);e=document.createTextNode(e),c.parentNode.replaceChild(e,c)}}}catch(u){}}();/* ]]&gt; */&lt;/script&gt;\nFormat settings, CABAC                   : Yes\nFormat settings, ReFrames                : 4 frames\nCodec ID                                 : V_MPEG4/ISO/AVC\nDuration                                 : 1h 29mn\nBit rate                                 : 6 892 Kbps\nWidth                                    : 1 920 pixels\nHeight                                   : 816 pixels\nDisplay aspect ratio                     : 2.35:1\nFrame rate mode                          : Constant\nFrame rate                               : 23.976 fps\nColor space                              : YUV\nChroma subsampling                       : 4:2:0\nBit depth                                : 8 bits\nScan type                                : Progressive\nBits/(Pixel*Frame)                       : 0.183\nStream size                              : 4.33 GiB (79%)\nTitle                                    : NTSC, 1920x816 (2.353:1), BDRip 1080p - tRuAVC &amp; Multfilmy [DFCbit]\nWriting library                          : x264 core 140 r2377kMod 1ca7bb9\nEncoding settings                        : cabac=1 / ref=4 / deblock=1:-3:-2 / analyse=0x3:0x133 / me=umh / subme=11 / psy=1 / fade_compensate=0.00 / psy_rd=0.63:0.00 / mixed_ref=1 / me_range=32 / chroma_me=1 / trellis=2 / 8x8dct=1 / cqm=0 / deadzone=21,11 / fast_pskip=0 / chroma_qp_offset=-2 / threads=12 / lookahead_threads=2 / sliced_threads=0 / nr=0 / decimate=1 / interlaced=0 / bluray_compat=0 / constrained_intra=0 / fgo=0 / bframes=9 / b_pyramid=2 / b_adapt=2 / b_bias=0 / direct=1 / weightb=1 / open_gop=0 / weightp=2 / keyint=250 / keyint_min=23 / scenecut=40 / intra_refresh=0 / rc_lookahead=70 / rc=crf / mbtree=0 / crf=17.9100 / qcomp=0.81 / qpmin=0 / qpmax=69 / qpstep=4 / vbv_maxrate=50000 / vbv_bufsize=62500 / crf_max=0.0 / nal_hrd=none / filler=0 / ip_ratio=1.40 / pb_ratio=1.30 / aq=3:0.90\nLanguage                                 : Russian\nDefault                                  : Yes\nForced                                   : No\nColor primaries                          : BT.709\nTransfer characteristics                 : BT.709\nMatrix coefficients                      : BT.709\n\nAudio #1\nID                                       : 2\nFormat                                   : DTS\nFormat/Info                              : Digital Theater Systems\nMode                                     : 16\nFormat settings, Endianness              : Big\nCodec ID                                 : A_DTS\nDuration                                 : 1h 29mn\nBit rate mode                            : Constant\nBit rate                                 : 1 509 Kbps\nChannel(s)                               : 6 channels\nChannel positions                        : Front: L C R, Side: L R, LFE\nSampling rate                            : 48.0 KHz\nBit depth                                : 24 bits\nCompression mode                         : Lossy\nStream size                              : 970 MiB (17%)\nTitle                                    : DTS / 5.1 / 48 kHz / 1509 kbps / 24-bit - Original\nLanguage                                 : English\nDefault                                  : No\nForced                                   : No\n\nAudio #2\nID                                       : 3\nFormat                                   : AC-3\nFormat/Info                              : Audio Coding 3\nFormat profile                           : Dolby Digital\nMode extension                           : CM (complete main)\nFormat settings, Endianness              : Big\nCodec ID                                 : A_AC3\nDuration                                 : 1h 29mn\nBit rate mode                            : Constant\nBit rate                                 : 192 Kbps\nChannel(s)                               : 2 channels\nChannel positions                        : Front: L R\nSampling rate                            : 48.0 KHz\nBit depth                                : 16 bits\nCompression mode                         : Lossy\nStream size                              : 123 MiB (2%)\nTitle                                    : AC3, 2 ch, 48 kHz, 192 kbps - Commentary track with Actor Bill Hader and Writers/Directors Christopher Miller and Phil Lord\nLanguage                                 : English\nDefault                                  : No\nForced                                   : No\n\nText #1\nID                                       : 4\nFormat                                   : UTF-8\nCodec ID                                 : S_TEXT/UTF8\nCodec ID/Info                            : UTF-8 Plain Text\nTitle                                    : SRT, Full\nLanguage                                 : English\nDefault                                  : No\nForced                                   : No\n\nText #2\nID                                       : 5\nFormat                                   : UTF-8\nCodec ID                                 : S_TEXT/UTF8\nCodec ID/Info                            : UTF-8 Plain Text\nTitle                                    : SRT, Commentary\nLanguage                                 : English\nDefault                                  : No\nForced                                   : No\n\nMenu\n00:00:00.000                             : en:Chapter 1\n00:04:47.621                             : en:Chapter 2\n00:08:56.578                             : en:Chapter 3\n00:14:33.164                             : en:Chapter 4\n00:20:30.229                             : en:Chapter 5\n00:24:25.589                             : en:Chapter 6\n00:30:43.175                             : en:Chapter 7\n00:36:29.604                             : en:Chapter 8\n00:42:50.109                             : en:Chapter 9\n00:46:36.794                             : en:Chapter 10\n00:52:43.827                             : en:Chapter 11\n00:55:07.429                             : en:Chapter 12\n01:00:42.764                             : en:Chapter 13\n01:05:43.398                             : en:Chapter 14\n01:13:03.754                             : en:Chapter 15\n01:17:45.369                             : en:Chapter 16","torrent":{"xt":"urn:btih:caf82b2f4ee3a9d7bb5425e50a3b04d446b2a897","amp;dn":"Cloudy.With.A.Chance.Of.Meatballs.2009.1080p.DTS.AC3.x264.iSAAC","amp;tr":["udp%3A%2F%2Ftracker.openbittorrent.com%3A80","udp%3A%2F%2Fopen.demonii.com%3A1337","udp%3A%2F%2Ftracker.coppersurfer.tk%3A6969","udp%3A%2F%2Fexodus.desync.com%3A6969"],"infoHash":"caf82b2f4ee3a9d7bb5425e50a3b04d446b2a897","infoHashBuffer":{"type":"Buffer","data":[202,248,43,47,78,227,169,215,187,84,37,229,10,59,4,212,70,178,168,151]},"announce":[],"urlList":[]}}